<mxfile host="app.diagrams.net" modified="2023-01-24T12:57:18.462Z" agent="5.0 (Windows NT 10.0; Win64; x64) AppleWebKit/537.36 (KHTML, like Gecko) Chrome/109.0.0.0 Safari/537.36" etag="aaEPVEFlxnh2qQClCc3u" version="20.8.10" type="github">
  <diagram name="Page-1" id="Wq9uvbDrd7fHrqmKXh3g">
    <mxGraphModel dx="1114" dy="583" grid="1" gridSize="10" guides="1" tooltips="1" connect="1" arrows="1" fold="1" page="1" pageScale="1" pageWidth="850" pageHeight="1100" math="0" shadow="0">
      <root>
        <mxCell id="0" />
        <mxCell id="1" parent="0" />
        <mxCell id="kQb08oRxAu2-rMOs_5Rh-11" style="edgeStyle=orthogonalEdgeStyle;rounded=0;orthogonalLoop=1;jettySize=auto;html=1;exitX=0.5;exitY=1;exitDx=0;exitDy=0;entryX=0.5;entryY=0;entryDx=0;entryDy=0;" edge="1" parent="1" source="kQb08oRxAu2-rMOs_5Rh-1" target="kQb08oRxAu2-rMOs_5Rh-2">
          <mxGeometry relative="1" as="geometry" />
        </mxCell>
        <mxCell id="kQb08oRxAu2-rMOs_5Rh-1" value="Start" style="ellipse;whiteSpace=wrap;html=1;" vertex="1" parent="1">
          <mxGeometry x="350" y="20" width="120" height="80" as="geometry" />
        </mxCell>
        <mxCell id="kQb08oRxAu2-rMOs_5Rh-12" style="edgeStyle=orthogonalEdgeStyle;rounded=0;orthogonalLoop=1;jettySize=auto;html=1;exitX=0.5;exitY=1;exitDx=0;exitDy=0;entryX=0.533;entryY=-0.033;entryDx=0;entryDy=0;entryPerimeter=0;" edge="1" parent="1" source="kQb08oRxAu2-rMOs_5Rh-2" target="kQb08oRxAu2-rMOs_5Rh-3">
          <mxGeometry relative="1" as="geometry" />
        </mxCell>
        <mxCell id="kQb08oRxAu2-rMOs_5Rh-2" value="declare a,b,c" style="shape=hexagon;perimeter=hexagonPerimeter2;whiteSpace=wrap;html=1;fixedSize=1;" vertex="1" parent="1">
          <mxGeometry x="320" y="120" width="180" height="80" as="geometry" />
        </mxCell>
        <mxCell id="kQb08oRxAu2-rMOs_5Rh-13" style="edgeStyle=orthogonalEdgeStyle;rounded=0;orthogonalLoop=1;jettySize=auto;html=1;exitX=0.5;exitY=1;exitDx=0;exitDy=0;entryX=0.5;entryY=0;entryDx=0;entryDy=0;" edge="1" parent="1" source="kQb08oRxAu2-rMOs_5Rh-3" target="kQb08oRxAu2-rMOs_5Rh-4">
          <mxGeometry relative="1" as="geometry" />
        </mxCell>
        <mxCell id="kQb08oRxAu2-rMOs_5Rh-3" value="INPUT&lt;br&gt;get value of a , get value of b, get value c" style="shape=parallelogram;perimeter=parallelogramPerimeter;whiteSpace=wrap;html=1;fixedSize=1;" vertex="1" parent="1">
          <mxGeometry x="300" y="230" width="210" height="60" as="geometry" />
        </mxCell>
        <mxCell id="kQb08oRxAu2-rMOs_5Rh-7" style="edgeStyle=orthogonalEdgeStyle;rounded=0;orthogonalLoop=1;jettySize=auto;html=1;entryX=0.5;entryY=0;entryDx=0;entryDy=0;" edge="1" parent="1" source="kQb08oRxAu2-rMOs_5Rh-4" target="kQb08oRxAu2-rMOs_5Rh-5">
          <mxGeometry relative="1" as="geometry" />
        </mxCell>
        <mxCell id="kQb08oRxAu2-rMOs_5Rh-9" value="FALSE" style="edgeLabel;html=1;align=center;verticalAlign=middle;resizable=0;points=[];" vertex="1" connectable="0" parent="kQb08oRxAu2-rMOs_5Rh-7">
          <mxGeometry x="-0.1" y="-1" relative="1" as="geometry">
            <mxPoint as="offset" />
          </mxGeometry>
        </mxCell>
        <mxCell id="kQb08oRxAu2-rMOs_5Rh-8" style="edgeStyle=orthogonalEdgeStyle;rounded=0;orthogonalLoop=1;jettySize=auto;html=1;entryX=0.5;entryY=0;entryDx=0;entryDy=0;" edge="1" parent="1" source="kQb08oRxAu2-rMOs_5Rh-4" target="kQb08oRxAu2-rMOs_5Rh-6">
          <mxGeometry relative="1" as="geometry" />
        </mxCell>
        <mxCell id="kQb08oRxAu2-rMOs_5Rh-10" value="TRUE" style="edgeLabel;html=1;align=center;verticalAlign=middle;resizable=0;points=[];" vertex="1" connectable="0" parent="kQb08oRxAu2-rMOs_5Rh-8">
          <mxGeometry x="-0.0588" y="2" relative="1" as="geometry">
            <mxPoint as="offset" />
          </mxGeometry>
        </mxCell>
        <mxCell id="kQb08oRxAu2-rMOs_5Rh-4" value="" style="rhombus;whiteSpace=wrap;html=1;" vertex="1" parent="1">
          <mxGeometry x="355" y="320" width="110" height="110" as="geometry" />
        </mxCell>
        <mxCell id="kQb08oRxAu2-rMOs_5Rh-21" style="edgeStyle=orthogonalEdgeStyle;rounded=0;orthogonalLoop=1;jettySize=auto;html=1;entryX=0.367;entryY=-0.017;entryDx=0;entryDy=0;entryPerimeter=0;" edge="1" parent="1" source="kQb08oRxAu2-rMOs_5Rh-5" target="kQb08oRxAu2-rMOs_5Rh-20">
          <mxGeometry relative="1" as="geometry" />
        </mxCell>
        <mxCell id="kQb08oRxAu2-rMOs_5Rh-26" value="FALSE" style="edgeLabel;html=1;align=center;verticalAlign=middle;resizable=0;points=[];" vertex="1" connectable="0" parent="kQb08oRxAu2-rMOs_5Rh-21">
          <mxGeometry x="-0.36" y="2" relative="1" as="geometry">
            <mxPoint as="offset" />
          </mxGeometry>
        </mxCell>
        <mxCell id="kQb08oRxAu2-rMOs_5Rh-22" style="edgeStyle=orthogonalEdgeStyle;rounded=0;orthogonalLoop=1;jettySize=auto;html=1;" edge="1" parent="1" source="kQb08oRxAu2-rMOs_5Rh-5">
          <mxGeometry relative="1" as="geometry">
            <mxPoint x="340" y="650" as="targetPoint" />
          </mxGeometry>
        </mxCell>
        <mxCell id="kQb08oRxAu2-rMOs_5Rh-25" value="TRUE" style="edgeLabel;html=1;align=center;verticalAlign=middle;resizable=0;points=[];" vertex="1" connectable="0" parent="kQb08oRxAu2-rMOs_5Rh-22">
          <mxGeometry x="-0.5739" y="-1" relative="1" as="geometry">
            <mxPoint as="offset" />
          </mxGeometry>
        </mxCell>
        <mxCell id="kQb08oRxAu2-rMOs_5Rh-5" value="b &amp;gt; c" style="rhombus;whiteSpace=wrap;html=1;" vertex="1" parent="1">
          <mxGeometry x="160" y="420" width="120" height="120" as="geometry" />
        </mxCell>
        <mxCell id="kQb08oRxAu2-rMOs_5Rh-17" style="edgeStyle=orthogonalEdgeStyle;rounded=0;orthogonalLoop=1;jettySize=auto;html=1;exitX=1;exitY=0.5;exitDx=0;exitDy=0;entryX=0.583;entryY=-0.033;entryDx=0;entryDy=0;entryPerimeter=0;" edge="1" parent="1" source="kQb08oRxAu2-rMOs_5Rh-6" target="kQb08oRxAu2-rMOs_5Rh-14">
          <mxGeometry relative="1" as="geometry" />
        </mxCell>
        <mxCell id="kQb08oRxAu2-rMOs_5Rh-23" value="TRUE" style="edgeLabel;html=1;align=center;verticalAlign=middle;resizable=0;points=[];" vertex="1" connectable="0" parent="kQb08oRxAu2-rMOs_5Rh-17">
          <mxGeometry x="-0.5969" y="1" relative="1" as="geometry">
            <mxPoint as="offset" />
          </mxGeometry>
        </mxCell>
        <mxCell id="kQb08oRxAu2-rMOs_5Rh-18" style="edgeStyle=orthogonalEdgeStyle;rounded=0;orthogonalLoop=1;jettySize=auto;html=1;" edge="1" parent="1" source="kQb08oRxAu2-rMOs_5Rh-6">
          <mxGeometry relative="1" as="geometry">
            <mxPoint x="510" y="650" as="targetPoint" />
          </mxGeometry>
        </mxCell>
        <mxCell id="kQb08oRxAu2-rMOs_5Rh-24" value="FALSE" style="edgeLabel;html=1;align=center;verticalAlign=middle;resizable=0;points=[];" vertex="1" connectable="0" parent="kQb08oRxAu2-rMOs_5Rh-18">
          <mxGeometry x="-0.6952" y="1" relative="1" as="geometry">
            <mxPoint as="offset" />
          </mxGeometry>
        </mxCell>
        <mxCell id="kQb08oRxAu2-rMOs_5Rh-6" value="a &amp;gt; c" style="rhombus;whiteSpace=wrap;html=1;" vertex="1" parent="1">
          <mxGeometry x="550" y="420" width="130" height="120" as="geometry" />
        </mxCell>
        <mxCell id="kQb08oRxAu2-rMOs_5Rh-37" style="edgeStyle=orthogonalEdgeStyle;rounded=0;orthogonalLoop=1;jettySize=auto;html=1;entryX=1.008;entryY=0.588;entryDx=0;entryDy=0;entryPerimeter=0;" edge="1" parent="1" source="kQb08oRxAu2-rMOs_5Rh-14" target="kQb08oRxAu2-rMOs_5Rh-27">
          <mxGeometry relative="1" as="geometry" />
        </mxCell>
        <mxCell id="kQb08oRxAu2-rMOs_5Rh-14" value="OUTPUT a" style="shape=parallelogram;perimeter=parallelogramPerimeter;whiteSpace=wrap;html=1;fixedSize=1;" vertex="1" parent="1">
          <mxGeometry x="690" y="660" width="120" height="60" as="geometry" />
        </mxCell>
        <mxCell id="kQb08oRxAu2-rMOs_5Rh-16" value="OUTPUT c" style="shape=parallelogram;perimeter=parallelogramPerimeter;whiteSpace=wrap;html=1;fixedSize=1;" vertex="1" parent="1">
          <mxGeometry x="460" y="660" width="120" height="60" as="geometry" />
        </mxCell>
        <mxCell id="kQb08oRxAu2-rMOs_5Rh-34" style="edgeStyle=orthogonalEdgeStyle;rounded=0;orthogonalLoop=1;jettySize=auto;html=1;entryX=-0.008;entryY=0.6;entryDx=0;entryDy=0;entryPerimeter=0;" edge="1" parent="1" source="kQb08oRxAu2-rMOs_5Rh-19" target="kQb08oRxAu2-rMOs_5Rh-27">
          <mxGeometry relative="1" as="geometry" />
        </mxCell>
        <mxCell id="kQb08oRxAu2-rMOs_5Rh-19" value="OUTPUT b" style="shape=parallelogram;perimeter=parallelogramPerimeter;whiteSpace=wrap;html=1;fixedSize=1;" vertex="1" parent="1">
          <mxGeometry x="260" y="660" width="120" height="60" as="geometry" />
        </mxCell>
        <mxCell id="kQb08oRxAu2-rMOs_5Rh-36" style="edgeStyle=orthogonalEdgeStyle;rounded=0;orthogonalLoop=1;jettySize=auto;html=1;entryX=0;entryY=0.5;entryDx=0;entryDy=0;" edge="1" parent="1" source="kQb08oRxAu2-rMOs_5Rh-20" target="kQb08oRxAu2-rMOs_5Rh-27">
          <mxGeometry relative="1" as="geometry" />
        </mxCell>
        <mxCell id="kQb08oRxAu2-rMOs_5Rh-20" value="OUTPUT c" style="shape=parallelogram;perimeter=parallelogramPerimeter;whiteSpace=wrap;html=1;fixedSize=1;" vertex="1" parent="1">
          <mxGeometry x="20" y="660" width="120" height="60" as="geometry" />
        </mxCell>
        <mxCell id="kQb08oRxAu2-rMOs_5Rh-27" value="End" style="ellipse;whiteSpace=wrap;html=1;" vertex="1" parent="1">
          <mxGeometry x="365" y="770" width="120" height="80" as="geometry" />
        </mxCell>
        <mxCell id="kQb08oRxAu2-rMOs_5Rh-31" value="" style="endArrow=none;html=1;rounded=0;" edge="1" parent="1">
          <mxGeometry width="50" height="50" relative="1" as="geometry">
            <mxPoint x="520" y="800" as="sourcePoint" />
            <mxPoint x="519.5" y="720" as="targetPoint" />
          </mxGeometry>
        </mxCell>
        <mxCell id="kQb08oRxAu2-rMOs_5Rh-32" value="" style="endArrow=classic;html=1;rounded=0;" edge="1" parent="1" target="kQb08oRxAu2-rMOs_5Rh-27">
          <mxGeometry width="50" height="50" relative="1" as="geometry">
            <mxPoint x="520" y="800" as="sourcePoint" />
            <mxPoint x="550" y="770" as="targetPoint" />
            <Array as="points" />
          </mxGeometry>
        </mxCell>
      </root>
    </mxGraphModel>
  </diagram>
</mxfile>
